<svg xmlns="http://www.w3.org/2000/svg" width="191.065" height="44.149" viewBox="0 0 191.065 44.149">
  <path id="Path_42" data-name="Path 42" d="M15.476.636A14.444,14.444,0,0,1,7.765-1.14a9.564,9.564,0,0,1-4-4.982A22.1,22.1,0,0,1,2.6-13.674V-29.15a22.455,22.455,0,0,1,1.166-7.659,9.436,9.436,0,0,1,4-4.956,14.62,14.62,0,0,1,7.712-1.749,14.828,14.828,0,0,1,7.447,1.563,8.631,8.631,0,0,1,3.789,4.372,17.462,17.462,0,0,1,1.113,6.466v3.71H18.55v-4.293a21.6,21.6,0,0,0-.132-2.438,3.6,3.6,0,0,0-.769-1.934,2.681,2.681,0,0,0-2.173-.769,2.814,2.814,0,0,0-2.2.8,3.758,3.758,0,0,0-.9,1.987,16.376,16.376,0,0,0-.185,2.517v20.193a13.4,13.4,0,0,0,.238,2.623,3.627,3.627,0,0,0,.954,1.908,2.837,2.837,0,0,0,2.094.715,2.608,2.608,0,0,0,2.12-.768,3.82,3.82,0,0,0,.8-1.988,19.242,19.242,0,0,0,.159-2.491v-4.505h9.275v3.71a18.494,18.494,0,0,1-1.087,6.546,8.974,8.974,0,0,1-3.763,4.558A14.171,14.171,0,0,1,15.476.636Zm29.839,0a14.72,14.72,0,0,1-7.632-1.7,9.483,9.483,0,0,1-4.028-4.876,21.174,21.174,0,0,1-1.219-7.579V-29.468a20.907,20.907,0,0,1,1.219-7.579,9.372,9.372,0,0,1,4.028-4.8,14.911,14.911,0,0,1,7.632-1.669,15.185,15.185,0,0,1,7.711,1.669,9.338,9.338,0,0,1,4.055,4.8A20.907,20.907,0,0,1,58.3-29.468v15.953a21.174,21.174,0,0,1-1.219,7.579A9.447,9.447,0,0,1,53.027-1.06,14.99,14.99,0,0,1,45.315.636Zm0-6.731a2.837,2.837,0,0,0,2.173-.742,3.705,3.705,0,0,0,.9-1.908A13.306,13.306,0,0,0,48.6-11.13V-31.8a13.173,13.173,0,0,0-.212-2.412,3.686,3.686,0,0,0-.9-1.882,2.837,2.837,0,0,0-2.173-.742,2.687,2.687,0,0,0-2.067.742,3.686,3.686,0,0,0-.9,1.882,13.173,13.173,0,0,0-.212,2.412v20.67a15.158,15.158,0,0,0,.186,2.385,3.653,3.653,0,0,0,.848,1.908A2.747,2.747,0,0,0,45.315-6.1ZM64.077,0V-42.93h6.678l8.8,20.67V-42.93H87.4V0H80.984l-8.8-22.26V0Zm33.6,0V-35.881H91.213V-42.93h22.419v7.049h-6.413V0ZM113.42,0l8.109-42.93h10.812l8,42.93H131.6l-1.431-9.063h-6.307L122.377,0Zm11.289-14.734h4.558l-2.279-16.748ZM156.3.636a14.444,14.444,0,0,1-7.712-1.775,9.564,9.564,0,0,1-4-4.982,22.1,22.1,0,0,1-1.166-7.553V-29.15a22.455,22.455,0,0,1,1.166-7.659,9.436,9.436,0,0,1,4-4.956,14.62,14.62,0,0,1,7.712-1.749,14.828,14.828,0,0,1,7.447,1.563,8.631,8.631,0,0,1,3.79,4.372,17.462,17.462,0,0,1,1.113,6.466v3.71h-9.275v-4.293a21.6,21.6,0,0,0-.133-2.438,3.6,3.6,0,0,0-.768-1.934,2.681,2.681,0,0,0-2.173-.769,2.814,2.814,0,0,0-2.2.8,3.758,3.758,0,0,0-.9,1.987,16.376,16.376,0,0,0-.186,2.517v20.193a13.4,13.4,0,0,0,.238,2.623,3.627,3.627,0,0,0,.954,1.908A2.837,2.837,0,0,0,156.3-6.1a2.608,2.608,0,0,0,2.12-.768,3.82,3.82,0,0,0,.8-1.988,19.242,19.242,0,0,0,.159-2.491v-4.505h9.275v3.71a18.494,18.494,0,0,1-1.086,6.546A8.974,8.974,0,0,1,163.8-1.034,14.171,14.171,0,0,1,156.3.636ZM177.709,0V-35.881h-6.466V-42.93h22.419v7.049h-6.413V0Z" transform="translate(-2.597 43.513)" fill="#707070"/>
</svg>
