<svg xmlns="http://www.w3.org/2000/svg" width="173.301" height="750" viewBox="0 0 173.301 750">
  <path id="text" d="M60.355,9.1q-19.14,0-30.27-6.969A37.542,37.542,0,0,1,14.377-17.425Q9.8-30.011,9.8-47.071V-107.82q0-17.476,4.577-30.062a37.04,37.04,0,0,1,15.707-19.452q11.13-6.865,30.27-6.865,18.724,0,29.23,6.137A33.878,33.878,0,0,1,104.46-140.9a68.544,68.544,0,0,1,4.369,25.381v14.563H72.421v-16.852a84.784,84.784,0,0,0-.52-9.57,14.111,14.111,0,0,0-3.017-7.594q-2.5-3.017-8.53-3.017-5.825,0-8.634,3.121a14.752,14.752,0,0,0-3.537,7.8,64.284,64.284,0,0,0-.728,9.882v79.265a52.6,52.6,0,0,0,.936,10.3,14.237,14.237,0,0,0,3.745,7.49q2.809,2.809,8.218,2.809,5.825,0,8.322-3.017a14.993,14.993,0,0,0,3.121-7.8,75.531,75.531,0,0,0,.624-9.778V-55.6h36.408v14.563a72.6,72.6,0,0,1-4.265,25.693A35.227,35.227,0,0,1,89.793,2.548Q79.287,9.1,60.355,9.1Zm117.129,0q-18.932,0-29.958-6.657A37.224,37.224,0,0,1,131.714-16.7q-4.785-12.483-4.785-29.75v-62.621q0-17.476,4.785-29.75a36.787,36.787,0,0,1,15.811-18.828q11.026-6.553,29.958-6.553,19.14,0,30.27,6.553a36.654,36.654,0,0,1,15.915,18.828q4.785,12.275,4.785,29.75v62.621q0,17.268-4.785,29.75a37.085,37.085,0,0,1-15.915,19.14Q196.624,9.1,177.484,9.1Zm0-26.422q5.825,0,8.53-2.913a14.545,14.545,0,0,0,3.537-7.49,52.232,52.232,0,0,0,.832-9.362v-81.137a51.709,51.709,0,0,0-.832-9.466,14.468,14.468,0,0,0-3.537-7.386q-2.7-2.913-8.53-2.913-5.409,0-8.114,2.913a14.468,14.468,0,0,0-3.537,7.386,51.707,51.707,0,0,0-.832,9.466v81.137a59.5,59.5,0,0,0,.728,9.362,14.34,14.34,0,0,0,3.329,7.49Q171.659-17.321,177.484-17.321ZM251.132,6.6V-161.912h26.214L311.88-80.774v-81.137h30.791V6.6H317.5L282.962-80.774V6.6Zm131.9,0V-134.242H357.65v-27.67h88v27.67H420.48V6.6Zm61.789,0,31.831-168.516h42.441L550.507,6.6H516.18l-5.617-35.576H485.806L479.98,6.6Zm44.313-57.836h17.892l-8.946-65.742ZM613.129,9.1q-19.14,0-30.271-6.969a37.542,37.542,0,0,1-15.707-19.556q-4.577-12.587-4.577-29.646V-107.82q0-17.476,4.577-30.062a37.039,37.039,0,0,1,15.707-19.452q11.13-6.865,30.271-6.865,18.724,0,29.23,6.137A33.879,33.879,0,0,1,657.234-140.9a68.544,68.544,0,0,1,4.369,25.381v14.563H625.2v-16.852a84.784,84.784,0,0,0-.52-9.57,14.111,14.111,0,0,0-3.017-7.594q-2.5-3.017-8.53-3.017-5.825,0-8.634,3.121a14.752,14.752,0,0,0-3.537,7.8,64.28,64.28,0,0,0-.728,9.882v79.265a52.6,52.6,0,0,0,.936,10.3,14.236,14.236,0,0,0,3.745,7.49q2.809,2.809,8.218,2.809,5.825,0,8.322-3.017a14.994,14.994,0,0,0,3.121-7.8,75.534,75.534,0,0,0,.624-9.778V-55.6H661.6v14.563a72.6,72.6,0,0,1-4.265,25.693A35.227,35.227,0,0,1,642.567,2.548Q632.061,9.1,613.129,9.1Zm84.05-2.5V-134.242H671.8v-27.67h88v27.67H734.627V6.6Z" transform="translate(164.2 759.8) rotate(-90)" fill="#707070"/>
</svg>
